<svg width="480" height="480" viewBox="0 0 480 480" fill="none" xmlns="http://www.w3.org/2000/svg">
<path d="M457.5 238.651C457.793 276.65 448.077 314.057 429.328 347.111C426.9 351.404 424.328 355.604 421.612 359.711C420.27 361.798 418.526 363.597 416.483 365.006C414.439 366.414 412.137 367.402 409.708 367.914C407.28 368.425 404.774 368.45 402.336 367.986C399.899 367.521 397.577 366.578 395.507 365.21C393.436 363.842 391.658 362.076 390.275 360.016C388.892 357.955 387.932 355.641 387.45 353.206C386.968 350.772 386.975 348.266 387.469 345.834C387.963 343.402 388.935 341.092 390.328 339.039C408.222 311.876 418.422 280.372 419.843 247.877C421.265 215.381 413.855 183.107 398.401 154.485C382.947 125.864 360.026 101.965 332.076 85.3283C304.125 68.6916 272.189 59.9391 239.662 60.0012C177.141 60.1231 121.706 92.9449 89.4843 141.986C70.2222 171.243 59.9721 205.511 60.0055 240.54C60.0388 275.569 70.354 309.818 89.6718 339.039C92.4106 343.19 93.3882 348.259 92.3895 353.131C91.3909 358.002 88.4978 362.278 84.3468 365.017C80.1957 367.756 75.1267 368.733 70.2549 367.735C65.383 366.736 61.1074 363.843 58.3687 359.692C36.9487 327.186 24.6452 289.527 22.7421 250.644C20.8389 211.762 29.4058 173.082 47.5489 138.639C65.6919 104.197 92.7461 75.2546 125.888 54.833C159.031 34.4113 197.046 23.2587 235.969 22.5387C237.337 22.5106 238.697 22.5012 240.056 22.5012C297.538 22.3828 352.719 45.0764 393.486 85.6009C434.253 126.125 457.275 181.17 457.5 238.651V238.651Z" fill="#F5F5F5"/>
<path d="M108.791 273.533L142.773 442.583C144.813 452.731 154.694 459.304 164.842 457.264C174.99 455.224 181.563 445.343 179.523 435.195L145.541 266.145C143.501 255.997 133.62 249.424 123.472 251.464C113.324 253.504 106.751 263.384 108.791 273.533Z" fill="#06B6D4"/>
<path d="M142.125 438.769L133.509 440.503C120.707 443.081 107.404 440.67 96.3208 433.764C85.2374 426.858 77.2114 415.978 73.8842 403.35C73.6311 402.375 73.3968 401.4 73.1999 400.406L60.853 339.066C58.1773 325.75 60.8977 311.917 68.4164 300.607C75.9351 289.296 87.6368 281.434 100.95 278.747L109.566 277.012L124.678 352.087L142.125 438.769Z" fill="#F5F5F5"/>
<path d="M142.125 438.769L133.509 440.503C120.707 443.081 107.404 440.67 96.3208 433.764C85.2375 426.858 77.2114 415.978 73.8843 403.35C92.0928 387.577 109.073 370.44 124.678 352.088L142.125 438.769Z" fill="#F5F5F5"/>
<path d="M433.772 325.05L429.328 347.11C426.9 351.403 424.328 355.603 421.612 359.71C420.27 361.797 418.526 363.596 416.483 365.005C414.439 366.413 412.137 367.401 409.708 367.913C407.28 368.424 404.774 368.449 402.336 367.985C399.898 367.52 397.577 366.577 395.507 365.209C393.436 363.841 391.658 362.075 390.275 360.015C388.892 357.954 387.932 355.64 387.45 353.205C386.968 350.771 386.975 348.265 387.469 345.833C387.963 343.401 388.934 341.091 390.328 339.038C403.038 319.803 411.91 298.293 416.456 275.691C423.512 281.602 428.845 289.306 431.892 297.993C434.939 306.679 435.589 316.026 433.772 325.05Z" fill="#F5F5F5"/>
<path d="M411.544 105.956L384.647 132.853C367.887 110.19 346.032 91.7869 320.846 79.1311C295.659 66.4754 267.849 59.9219 239.662 60.0002C177.141 60.122 121.706 92.9439 89.4844 141.985L62.2031 114.703C81.8728 86.7525 107.861 63.8381 138.055 47.8232C168.249 31.8083 201.796 23.145 235.969 22.5377C237.337 22.5096 238.697 22.5002 240.056 22.5002C273.11 22.4261 305.743 29.9067 335.464 44.3707C365.185 58.8347 391.207 79.8995 411.544 105.956V105.956Z" fill="#5B21B6"/>
<path d="M334.155 265.962L300.173 435.012C298.133 445.16 304.706 455.041 314.854 457.081C325.002 459.121 334.883 452.548 336.923 442.4L370.905 273.35C372.945 263.201 366.372 253.321 356.224 251.281C346.076 249.241 336.195 255.814 334.155 265.962Z" fill="#06B6D4"/>
<path d="M419.147 339.066L406.8 400.406C404.12 413.721 396.26 425.425 384.95 432.945C373.639 440.464 359.805 443.183 346.491 440.503L337.875 438.769L346.8 394.453L370.434 277.012L379.05 278.747C392.362 281.437 404.064 289.296 411.591 300.6C412.627 302.158 413.575 303.773 414.431 305.437C419.781 315.785 421.444 327.646 419.147 339.066V339.066Z" fill="#F5F5F5"/>
<path d="M419.147 339.066L406.8 400.406C404.12 413.721 396.26 425.425 384.95 432.945C373.639 440.465 359.805 443.183 346.491 440.503L337.875 438.769L346.8 394.453C372.484 367.304 395.159 337.459 414.431 305.438C419.781 315.785 421.444 327.646 419.147 339.066V339.066Z" fill="#F5F5F5"/>
</svg>
